# xmcd CD database file
#
# Track frame offsets:
#	150
#	23609
#	50852
#	66911
#	85957
#	97577
#	117303
#	163256
#	174943
#	194672
#	208411
#
# Disc length: 2947 seconds
#
# Revision: 0
# Processed by: cddbd v1.5.2PL0 Copyright (c) Steve Scherf et al.
# Submitted via: CDex 1.51
#
DISCID=9a0b810b
DTITLE=Knut Reiersrud - Gitar
DYEAR=2009
DGENRE=Blues
TTITLE0=Mohan vina
TTITLE1=Eleanor cross
TTITLE2=Hard times killing floor
TTITLE3=Magnolia
TTITLE4=Gorrlausen
TTITLE5=Tamil
TTITLE6=The hook
TTITLE7=Waltz
TTITLE8=Low swing
TTITLE9=Spanking the plank
TTITLE10=Epilog
EXTD=YEAR: 2009
EXTT0=
EXTT1=
EXTT2=
EXTT3=
EXTT4=
EXTT5=
EXTT6=
EXTT7=
EXTT8=
EXTT9=
EXTT10=
PLAYORDER=
